<svg xmlns="http://www.w3.org/2000/svg" version="1.1" xmlns:xlink="http://www.w3.org/1999/xlink" xmlns:svgjs="http://svgjs.dev/svgjs" width="1000" height="623" viewBox="0 0 1000 623"><g transform="matrix(1,0,0,1,-0.6060606060606233,0.2522267206477409)"><svg viewBox="0 0 396 247" data-background-color="#ffffff" preserveAspectRatio="xMidYMid meet" height="623" width="1000" xmlns="http://www.w3.org/2000/svg" xmlns:xlink="http://www.w3.org/1999/xlink"><g id="tight-bounds" transform="matrix(1,0,0,1,0.2400000000000091,-0.09999999999999432)"><svg viewBox="0 0 395.52 247.2" height="247.2" width="395.52"><g><svg></svg></g><g><svg viewBox="0 0 395.52 247.2" height="247.2" width="395.52"><g transform="matrix(1,0,0,1,120.09825045592704,47.215199999999996)"><svg viewBox="0 0 155.3234990881459 152.7696" height="152.7696" width="155.3234990881459"><g><svg viewBox="0 0 155.3234990881459 152.7696" height="152.7696" width="155.3234990881459"><g><svg viewBox="0 0 155.3234990881459 152.7696" height="152.7696" width="155.3234990881459"><g><svg viewBox="0 0 155.3234990881459 152.7696" height="152.7696" width="155.3234990881459"><g id="textblocktransform"><svg viewBox="0 0 155.3234990881459 152.7696" height="152.7696" width="155.3234990881459" id="textblock"><g><svg viewBox="0 0 155.3234990881459 152.7696" height="152.7696" width="155.3234990881459"><g transform="matrix(1,0,0,1,0,0)"><svg width="155.3234990881459" viewBox="0.4000000059604645 -33.27000045776367 33.81999969482422 33.27000045776367" height="152.7696" data-palette-color="#ee3e38"><path d="M25.35-29.83L14.81-29.83 14.81 0 10.95 0 10.95-29.83 0.4-29.83 0.4-33.27 25.35-33.27 25.35-29.83ZM34.22-33.27L34.22 0 30.36 0 30.36-33.27 34.22-33.27Z" opacity="1" transform="matrix(1,0,0,1,0,0)" fill="#ee3e38" class="wordmark-text-0" data-fill-palette-color="primary" id="text-0"></path></svg></g></svg></g></svg></g></svg></g></svg></g></svg></g></svg></g><path d="M93.12 41.215L93.12 0 340.32 0 340.32 247.2 93.12 247.2 93.12 205.985 106.897 205.985 106.897 233.423 326.544 233.423 326.544 13.777 106.897 13.777 106.897 41.215Z" fill="#ee3e38" stroke="transparent" data-fill-palette-color="primary"></path></svg></g><defs></defs></svg><rect width="395.52" height="247.2" fill="none" stroke="none" visibility="hidden"></rect></g></svg></g></svg>